<svg xmlns="http://www.w3.org/2000/svg" viewBox="0 0 1080 1080"><defs><style>.cls-1{fill:#b01f24;}.cls-2{fill:#fed406;}.cls-3{fill:#fff;}</style></defs><title>CIBC</title><g id="Layer_2" data-name="Layer 2"><g id="Layer_1-2" data-name="Layer 1"><rect class="cls-1" width="1080" height="1080"/><path class="cls-2" d="M50.89,740.64V847.17c170.32-96.23,493.44-240.11,981.69-280.11v-23C673.72,563.72,334.73,630.74,50.89,740.64"/><path class="cls-3" d="M50.89,886.35v73.13c243-180.27,599-304.34,981.69-345.34V592C654.4,626.15,322,728.3,50.89,886.35"/><path class="cls-2" d="M594,300.88c-10.2,0-16.49-.78-19.63-1.41V228.22c0-13.14.49-25.41,1.72-33.84,3.93-1.28,14.84-3,23-3,38.9,0,56,16.45,56,52.32,0,49.82-37.63,56.88-61.07,57.22m70.63,94.83c0,49-27.31,69-68.46,69-8.37,0-16.67-1-21.8-2.48V324.41h18.12c51.91,0,72.14,26.37,72.14,71.3m-16.48-87.4c37-10.37,68.11-36.79,68.11-76.89,0-38.46-25-64.32-76.25-64.32-24.46,0-55.17,2.49-77.34,2.49-21.77,0-44.93-.24-71.46-1.64l-1.68-.23v17.87l1.56.12c22.21,1.68,23.84,6,23.84,41.85V439.79c0,19-2.47,28.25-19.84,29.63l-5.12.41v17.56c16.85-1,48.05-1.79,61.62-1.79s24.06.76,41.18,1.45c102.36,4.53,135.68-53.65,135.68-100.4,0-55.87-41.06-69.92-80.25-77.89Z"/><path class="cls-2" d="M328,444.27c-20.3,12.61-43.93,17.91-70.65,17.91-72.25,0-108.16-55.65-108.16-143.9,0-77.73,34.42-129.1,100.33-129.1,22.47,0,40.63,8,52.62,19.32,2,7.25,4.65,45.15,4.65,45.15l18.42.06v-1.37c.17-16.42,4.75-54.58,8.21-73.79l.14-1.47-1.36-.08c-25.88-6.88-52.25-12.71-87.36-12.71-79.49,0-160.61,48.1-160.61,159.45,0,116.78,71.23,167.43,157.13,167.43,23.54,0,54.78-3.59,80-17.41l.39-.17L334,450.36l-5-6.71-1,.62"/><path class="cls-2" d="M992.5,444.27c-20.25,12.61-43.85,17.91-70.66,17.91-72.2,0-108.09-55.65-108.09-143.9,0-77.73,34.41-129.1,100.31-129.1,22.49,0,40.64,8,52.63,19.32,1.94,7.25,4.61,45.15,4.61,45.15l18.51.06-.1-1.37c.2-16.42,4.74-54.58,8.21-73.79l.19-1.47-1.35-.08c-26-6.88-52.32-12.71-87.44-12.71-79.44,0-160.55,48.1-160.55,159.45,0,116.78,71.22,167.43,157.17,167.43,23.46,0,54.78-3.59,80-17.41l.36-.17,12.24-23.23-5-6.71-1.06.62"/><path class="cls-2" d="M411.17,169.59c-18.58,0-39.49-.24-57.22-1.73l-1.41-.14v17.71l1.23.06C377,187,380.05,190.76,380.05,231V432.5c0,30.79-1.5,35.54-25.16,37.05l-1.27.14v17.7l1.42-.16c17.85-1.56,36.77-1.84,55.29-1.84,18.2,0,35.63.28,54.9,1.84l1.4.16v-17.7l-1.19-.14c-23.61-1.51-24.94-6.26-24.94-37.05V231c0-40.88,1.47-44,24.85-45.49l1.2-.06V167.72l-1.41.14c-19.18,1.49-35.72,1.73-54,1.73"/></g></g></svg>