<svg xmlns="http://www.w3.org/2000/svg" viewBox="0 0 1306.9 425.76"><defs><style>.cls-1{fill:#999;}.cls-2{fill:#fff;}</style></defs><title>pairingEx</title><g id="Layer_2" data-name="Layer 2"><g id="Layer_1-2" data-name="Layer 1"><path class="cls-1" d="M718.25,0H559a34.14,34.14,0,0,0-34.13,34.12V329.88A34.14,34.14,0,0,0,559,364H718.25a34.13,34.13,0,0,0,34.12-34.12V34.12A34.13,34.13,0,0,0,718.25,0ZM638.62,341.25a22.75,22.75,0,1,1,22.75-22.75A22.73,22.73,0,0,1,638.62,341.25Z"/><path d="M545.1,396.66v22.2H542v-2.22a6.78,6.78,0,0,1-2,1.73,5.91,5.91,0,0,1-3.06.79,7.19,7.19,0,0,1-3.84-1.05,7.44,7.44,0,0,1-2.7-2.91,9.55,9.55,0,0,1,0-8.47,7.56,7.56,0,0,1,2.67-2.9,7,7,0,0,1,3.78-1.05,6.63,6.63,0,0,1,3,.69,6.71,6.71,0,0,1,2.15,1.62v-8.43Zm-7.77,19.83a4.44,4.44,0,0,0,2.52-.72,4.8,4.8,0,0,0,1.68-2,7,7,0,0,0,0-5.65,4.84,4.84,0,0,0-1.68-2,4.44,4.44,0,0,0-2.52-.72,4.38,4.38,0,0,0-2.49.72,5,5,0,0,0-1.7,2,6.85,6.85,0,0,0,0,5.65,4.92,4.92,0,0,0,1.7,2A4.38,4.38,0,0,0,537.33,416.49Z"/><path d="M558.18,406.44a3.55,3.55,0,0,0-.74-.25,3.84,3.84,0,0,0-.91-.11,4,4,0,0,0-1.89.5,4.27,4.27,0,0,0-1.55,1.41,3.79,3.79,0,0,0-.61,2.17v8.7h-3.12V403.11h3.12v3a5.77,5.77,0,0,1,2-2.37,4.85,4.85,0,0,1,2.81-.93,3.91,3.91,0,0,1,1.71.3Z"/><path d="M563.52,399.69a2.05,2.05,0,0,1-1.56-.54,2,2,0,0,1-.51-1.41,2,2,0,0,1,.51-1.35,1.93,1.93,0,0,1,1.56-.6,2.05,2.05,0,0,1,1.56.54,2,2,0,0,1,.51,1.41,2,2,0,0,1-.51,1.35A1.93,1.93,0,0,1,563.52,399.69Zm1.59,19.17H562V403.11h3.09Z"/><path d="M571.62,403.11l4.59,11.25L581,403.11h3.18l-7,15.75H575l-6.66-15.75Z"/><path d="M600.06,416.79h0a8.67,8.67,0,0,1-2.64,1.65,9.31,9.31,0,0,1-7.85-.31,7.48,7.48,0,0,1-2.92-2.85,8.1,8.1,0,0,1-1-4.13,8.69,8.69,0,0,1,1.11-4.51,7.67,7.67,0,0,1,2.94-2.88,8.16,8.16,0,0,1,4-1,6.85,6.85,0,0,1,3.6,1,7.15,7.15,0,0,1,2.58,2.68,8,8,0,0,1,1,4l0,1.32H588.66a5.06,5.06,0,0,0,1.75,3.38,5.67,5.67,0,0,0,3.77,1.24,5.12,5.12,0,0,0,2.67-.61,12.31,12.31,0,0,0,1.68-1.19Zm-6.45-11.19a5.71,5.71,0,0,0-3.09.83,4.13,4.13,0,0,0-1.74,2.83h8.82v-.21a3.45,3.45,0,0,0-.68-1.8,4,4,0,0,0-1.45-1.21A4.11,4.11,0,0,0,593.61,405.6Z"/><path d="M612.93,406.44a3.55,3.55,0,0,0-.74-.25,3.84,3.84,0,0,0-.91-.11,4,4,0,0,0-1.89.5,4.27,4.27,0,0,0-1.55,1.41,3.79,3.79,0,0,0-.61,2.17v8.7h-3.12V403.11h3.12v3a5.77,5.77,0,0,1,2-2.37,4.85,4.85,0,0,1,2.81-.93,3.91,3.91,0,0,1,1.71.3Z"/><path d="M625.29,407.25a7.45,7.45,0,0,0-1.91-1.38,4.37,4.37,0,0,0-2-.54,5.28,5.28,0,0,0-1.25.15,2.21,2.21,0,0,0-1,.56,1.56,1.56,0,0,0-.42,1.18,1.62,1.62,0,0,0,1,1.53,13.13,13.13,0,0,0,2.36.81,18.39,18.39,0,0,1,2.4.83,4.88,4.88,0,0,1,1.93,1.44,4.1,4.1,0,0,1,.77,2.65,4,4,0,0,1-.83,2.52,5.29,5.29,0,0,1-2.13,1.61,6.91,6.91,0,0,1-2.74.55,9.69,9.69,0,0,1-3.38-.61,6.34,6.34,0,0,1-2.83-2.12l2.1-1.8a6.09,6.09,0,0,0,1.84,1.46,5.58,5.58,0,0,0,2.54.52,3.5,3.5,0,0,0,1.14-.19,2.33,2.33,0,0,0,1-.63,1.69,1.69,0,0,0,.41-1.19,1.45,1.45,0,0,0-.44-1.12,3.25,3.25,0,0,0-1.15-.66,16,16,0,0,0-1.59-.47,21.19,21.19,0,0,1-2.54-.88,5.42,5.42,0,0,1-2.07-1.5,4,4,0,0,1-.82-2.66,3.76,3.76,0,0,1,.79-2.41,5.26,5.26,0,0,1,2.09-1.56,6.91,6.91,0,0,1,2.76-.56,9,9,0,0,1,3.06.6,6.19,6.19,0,0,1,2.73,1.92Z"/><path d="M634.44,400.41a4,4,0,0,1-.62,2.13,6,6,0,0,1-1.6,1.71,7,7,0,0,1-2.07,1.05L629,403.92a7.39,7.39,0,0,0,1.92-1.23,1.85,1.85,0,0,0,.75-1.2,1,1,0,0,0-.32-.72,8.71,8.71,0,0,0-.7-.6,5,5,0,0,1-.71-.66,1.31,1.31,0,0,1-.31-.9,1.41,1.41,0,0,1,.52-1.17,2,2,0,0,1,1.31-.42,2.93,2.93,0,0,1,2,.87A3.28,3.28,0,0,1,634.44,400.41Z"/><path d="M646.89,407.25a7.45,7.45,0,0,0-1.91-1.38,4.37,4.37,0,0,0-2-.54,5.28,5.28,0,0,0-1.25.15,2.21,2.21,0,0,0-1,.56,1.56,1.56,0,0,0-.42,1.18,1.62,1.62,0,0,0,1,1.53,13.13,13.13,0,0,0,2.36.81,18.39,18.39,0,0,1,2.4.83,4.88,4.88,0,0,1,1.93,1.44,4.1,4.1,0,0,1,.77,2.65,4,4,0,0,1-.83,2.52,5.29,5.29,0,0,1-2.13,1.61,6.91,6.91,0,0,1-2.74.55,9.69,9.69,0,0,1-3.38-.61,6.34,6.34,0,0,1-2.83-2.12l2.1-1.8a6.09,6.09,0,0,0,1.84,1.46,5.58,5.58,0,0,0,2.54.52,3.5,3.5,0,0,0,1.14-.19,2.33,2.33,0,0,0,1-.63,1.69,1.69,0,0,0,.41-1.19,1.45,1.45,0,0,0-.44-1.12,3.25,3.25,0,0,0-1.15-.66,16,16,0,0,0-1.59-.47,21.19,21.19,0,0,1-2.54-.88,5.42,5.42,0,0,1-2.07-1.5,4,4,0,0,1-.82-2.66,3.76,3.76,0,0,1,.79-2.41,5.26,5.26,0,0,1,2.09-1.56,6.91,6.91,0,0,1,2.76-.56,9,9,0,0,1,3.06.6,6.19,6.19,0,0,1,2.73,1.92Z"/><path d="M668.79,402.84a7,7,0,0,1,3.76,1,7.35,7.35,0,0,1,2.63,2.86,9.78,9.78,0,0,1,0,8.45,7.46,7.46,0,0,1-2.61,2.89,6.73,6.73,0,0,1-3.69,1.05,6.42,6.42,0,0,1-3-.72,7,7,0,0,1-2.14-1.65v8.7h-3.12V403.08h3.12v2.31a6.48,6.48,0,0,1,5.1-2.55Zm-.42,2.85a4.59,4.59,0,0,0-2.51.69,4.78,4.78,0,0,0-1.71,1.88,6.3,6.3,0,0,0,0,5.41,4.86,4.86,0,0,0,1.71,1.91,4.52,4.52,0,0,0,2.51.7,4.45,4.45,0,0,0,2.49-.7,4.89,4.89,0,0,0,1.69-1.91,6.21,6.21,0,0,0,0-5.41,4.81,4.81,0,0,0-1.69-1.88A4.52,4.52,0,0,0,668.37,405.69Z"/><path d="M687.75,402.78a5.44,5.44,0,0,1,3.3.87,4.53,4.53,0,0,1,1.63,2.34,10.81,10.81,0,0,1,.47,3.27v9.6h-3.09v-9.39a6.73,6.73,0,0,0-.3-2,2.69,2.69,0,0,0-1-1.41,3,3,0,0,0-2-.42,4.36,4.36,0,0,0-2.13.51,3.92,3.92,0,0,0-1.47,1.35,3.37,3.37,0,0,0-.54,1.86v9.54H679.5v-22.2h3.09v8.94a6.44,6.44,0,0,1,2.1-2A5.65,5.65,0,0,1,687.75,402.78Z"/><path d="M712.44,411a8.36,8.36,0,0,1-1.07,4.25,7.76,7.76,0,0,1-2.88,2.89,8.41,8.41,0,0,1-8.14,0,7.66,7.66,0,0,1-2.9-2.89,9,9,0,0,1,0-8.49,7.69,7.69,0,0,1,2.9-2.9,8.41,8.41,0,0,1,8.14,0,7.78,7.78,0,0,1,2.88,2.9A8.32,8.32,0,0,1,712.44,411Zm-3.16,0a5.64,5.64,0,0,0-.61-2.8,4.8,4.8,0,0,0-1.76-1.89,4.69,4.69,0,0,0-2.48-.68,4.75,4.75,0,0,0-4.28,2.57,6.59,6.59,0,0,0,0,5.58,4.84,4.84,0,0,0,1.77,1.9,4.69,4.69,0,0,0,2.51.69,4.61,4.61,0,0,0,2.48-.69,4.89,4.89,0,0,0,1.76-1.9A5.61,5.61,0,0,0,709.28,411Z"/><path d="M724,402.78a5.44,5.44,0,0,1,3.3.87A4.54,4.54,0,0,1,729,406a10.81,10.81,0,0,1,.46,3.27v9.6h-3.09v-9.39a6.44,6.44,0,0,0-.3-2,2.73,2.73,0,0,0-1-1.41,3.05,3.05,0,0,0-2-.42,4.36,4.36,0,0,0-2.13.51,4,4,0,0,0-1.47,1.35,3.37,3.37,0,0,0-.54,1.86v9.54h-3.09V403.11h3.09v2.49a6.54,6.54,0,0,1,2.1-2A5.7,5.7,0,0,1,724,402.78Z"/><path d="M747.17,416.79h0a8.67,8.67,0,0,1-2.64,1.65,9.29,9.29,0,0,1-7.84-.31,7.51,7.51,0,0,1-2.93-2.85,8.1,8.1,0,0,1-1.05-4.13,8.69,8.69,0,0,1,1.11-4.51,7.67,7.67,0,0,1,2.94-2.88,8.16,8.16,0,0,1,4-1,6.85,6.85,0,0,1,3.6,1,7.15,7.15,0,0,1,2.58,2.68,8,8,0,0,1,1,4l0,1.32H735.77a5.07,5.07,0,0,0,1.76,3.38,5.64,5.64,0,0,0,3.76,1.24,5.12,5.12,0,0,0,2.67-.61,12.31,12.31,0,0,0,1.68-1.19Zm-6.45-11.19a5.71,5.71,0,0,0-3.09.83,4.13,4.13,0,0,0-1.74,2.83h8.82v-.21a3.44,3.44,0,0,0-.67-1.8,4.18,4.18,0,0,0-3.32-1.65Z"/><path class="cls-1" d="M220.59,0H61.34A34.13,34.13,0,0,0,27.22,34.12V329.88A34.13,34.13,0,0,0,61.34,364H220.59a34.14,34.14,0,0,0,34.13-34.12V34.12A34.14,34.14,0,0,0,220.59,0ZM141,341.25a22.75,22.75,0,1,1,22.75-22.75A22.72,22.72,0,0,1,141,341.25Z"/><path d="M8.22,402.84a7,7,0,0,1,3.76,1,7.27,7.27,0,0,1,2.63,2.86,9.78,9.78,0,0,1,0,8.45A7.38,7.38,0,0,1,12,418.08a6.73,6.73,0,0,1-3.69,1.05,6.45,6.45,0,0,1-3.05-.72,7,7,0,0,1-2.14-1.65v8.7H0V403.08H3.12v2.31a6.15,6.15,0,0,1,2.07-1.77A6.05,6.05,0,0,1,8.22,402.84Zm-.42,2.85a4.62,4.62,0,0,0-2.51.69,4.78,4.78,0,0,0-1.71,1.88,6.3,6.3,0,0,0,0,5.41,4.86,4.86,0,0,0,1.71,1.91,4.54,4.54,0,0,0,2.51.7,4.45,4.45,0,0,0,2.49-.7A4.89,4.89,0,0,0,12,413.67a6.21,6.21,0,0,0,0-5.41,4.81,4.81,0,0,0-1.69-1.88A4.52,4.52,0,0,0,7.8,405.69Z"/><path d="M33.6,403.11v15.75H30.48v-2.43a7.37,7.37,0,0,1-2.13,1.86,6.1,6.1,0,0,1-3.27.87,6.57,6.57,0,0,1-3.62-1.05,7.4,7.4,0,0,1-2.59-2.91,9.16,9.16,0,0,1-1-4.26,8.82,8.82,0,0,1,1-4.24,7.28,7.28,0,0,1,2.73-2.88,7.6,7.6,0,0,1,4-1,5.66,5.66,0,0,1,2.89.72,6.84,6.84,0,0,1,2,1.68v-2.07Zm-7.8,13.2a4.5,4.5,0,0,0,2.52-.7A4.75,4.75,0,0,0,30,413.69a6.14,6.14,0,0,0,.6-2.75,6,6,0,0,0-.6-2.7,4.76,4.76,0,0,0-1.68-1.9,4.78,4.78,0,0,0-5,0,4.67,4.67,0,0,0-1.68,1.89,6,6,0,0,0-.6,2.73,6.14,6.14,0,0,0,.6,2.75,4.75,4.75,0,0,0,1.68,1.92A4.4,4.4,0,0,0,25.8,416.31Z"/><path d="M47,407.25a7.45,7.45,0,0,0-1.91-1.38,4.37,4.37,0,0,0-2-.54,5.28,5.28,0,0,0-1.25.15,2.21,2.21,0,0,0-1,.56,1.56,1.56,0,0,0-.42,1.18,1.62,1.62,0,0,0,1,1.53,13.13,13.13,0,0,0,2.36.81,18.39,18.39,0,0,1,2.4.83,4.88,4.88,0,0,1,1.93,1.44,4.1,4.1,0,0,1,.77,2.65A4,4,0,0,1,48,417a5.29,5.29,0,0,1-2.13,1.61,6.91,6.91,0,0,1-2.74.55,9.69,9.69,0,0,1-3.38-.61A6.34,6.34,0,0,1,37,416.43l2.1-1.8a6.09,6.09,0,0,0,1.84,1.46,5.58,5.58,0,0,0,2.54.52,3.5,3.5,0,0,0,1.14-.19,2.33,2.33,0,0,0,1-.63A1.69,1.69,0,0,0,46,414.6a1.45,1.45,0,0,0-.44-1.12,3.25,3.25,0,0,0-1.15-.66,16,16,0,0,0-1.59-.47,21.19,21.19,0,0,1-2.54-.88,5.42,5.42,0,0,1-2.07-1.5,4,4,0,0,1-.82-2.66,3.76,3.76,0,0,1,.79-2.41,5.26,5.26,0,0,1,2.09-1.56,6.91,6.91,0,0,1,2.76-.56,9,9,0,0,1,3.06.6,6.19,6.19,0,0,1,2.73,1.92Z"/><path d="M61.38,407.25a7.45,7.45,0,0,0-1.91-1.38,4.37,4.37,0,0,0-2-.54,5.28,5.28,0,0,0-1.25.15,2.21,2.21,0,0,0-1,.56,1.56,1.56,0,0,0-.42,1.18,1.62,1.62,0,0,0,1,1.53,13.13,13.13,0,0,0,2.36.81,18.39,18.39,0,0,1,2.4.83,4.88,4.88,0,0,1,1.93,1.44,4.1,4.1,0,0,1,.77,2.65,4,4,0,0,1-.83,2.52,5.29,5.29,0,0,1-2.13,1.61,6.91,6.91,0,0,1-2.74.55,9.69,9.69,0,0,1-3.38-.61,6.34,6.34,0,0,1-2.83-2.12l2.1-1.8a6.09,6.09,0,0,0,1.84,1.46,5.58,5.58,0,0,0,2.54.52,3.5,3.5,0,0,0,1.14-.19,2.33,2.33,0,0,0,1-.63,1.69,1.69,0,0,0,.41-1.19,1.45,1.45,0,0,0-.44-1.12,3.25,3.25,0,0,0-1.15-.66,16,16,0,0,0-1.59-.47,21.19,21.19,0,0,1-2.54-.88,5.42,5.42,0,0,1-2.07-1.5,4,4,0,0,1-.82-2.66,3.76,3.76,0,0,1,.79-2.41,5.26,5.26,0,0,1,2.09-1.56,6.91,6.91,0,0,1,2.76-.56,9,9,0,0,1,3.06.6,6.19,6.19,0,0,1,2.73,1.92Z"/><path d="M80.19,416.79h0a8.67,8.67,0,0,1-2.64,1.65,9.31,9.31,0,0,1-7.85-.31,7.48,7.48,0,0,1-2.92-2.85,8.1,8.1,0,0,1-1-4.13,8.69,8.69,0,0,1,1.11-4.51,7.67,7.67,0,0,1,2.94-2.88,8.16,8.16,0,0,1,4-1,6.85,6.85,0,0,1,3.6,1,7.15,7.15,0,0,1,2.58,2.68,8,8,0,0,1,1,4l0,1.32H68.79a5.06,5.06,0,0,0,1.75,3.38,5.67,5.67,0,0,0,3.77,1.24,5.12,5.12,0,0,0,2.67-.61,12.31,12.31,0,0,0,1.68-1.19ZM73.74,405.6a5.71,5.71,0,0,0-3.09.83,4.13,4.13,0,0,0-1.74,2.83h8.82v-.21a3.45,3.45,0,0,0-.68-1.8A4,4,0,0,0,75.6,406,4.11,4.11,0,0,0,73.74,405.6Z"/><path d="M92.49,402.78a5.44,5.44,0,0,1,3.3.87A4.53,4.53,0,0,1,97.42,406a10.81,10.81,0,0,1,.47,3.27v9.6H94.8v-9.39a6.44,6.44,0,0,0-.3-2,2.73,2.73,0,0,0-1-1.41,3.05,3.05,0,0,0-2-.42,4.36,4.36,0,0,0-2.13.51,4,4,0,0,0-1.47,1.35,3.37,3.37,0,0,0-.54,1.86v9.54H84.24V403.11h3.09v2.49a6.54,6.54,0,0,1,2.1-2A5.7,5.7,0,0,1,92.49,402.78Z"/><path d="M104.25,421.47a7.17,7.17,0,0,0,2.25,1.11,8.86,8.86,0,0,0,2.64.42,5.31,5.31,0,0,0,3.72-1.18,4.6,4.6,0,0,0,1.29-3.56v-1.92a5.21,5.21,0,0,1-1.2,1.37,6.54,6.54,0,0,1-1.83,1.05,6,6,0,0,1-2.19.4,7.58,7.58,0,0,1-6.77-4,9.26,9.26,0,0,1,0-8.47,7.58,7.58,0,0,1,2.77-2.9,7.5,7.5,0,0,1,3.92-1.05,6.32,6.32,0,0,1,3.19.8,7.05,7.05,0,0,1,2.12,1.72v-2.19h3.09V417.9a8.22,8.22,0,0,1-1.13,4.55,6.6,6.6,0,0,1-3,2.52,10,10,0,0,1-4,.79,11.09,11.09,0,0,1-3.35-.52,7.92,7.92,0,0,1-2.68-1.37Zm5-15.87a4.75,4.75,0,0,0-2.57.71,5,5,0,0,0-1.77,1.92,5.74,5.74,0,0,0-.64,2.74,5.67,5.67,0,0,0,.64,2.73,5,5,0,0,0,1.77,1.91,4.74,4.74,0,0,0,2.57.7,4.9,4.9,0,0,0,2.62-.69,4.75,4.75,0,0,0,1.76-1.9,6.34,6.34,0,0,0,0-5.51,4.88,4.88,0,0,0-1.76-1.9A4.82,4.82,0,0,0,109.26,405.6Z"/><path d="M135.09,416.79h0a8.67,8.67,0,0,1-2.64,1.65,9.31,9.31,0,0,1-7.85-.31,7.48,7.48,0,0,1-2.92-2.85,8.1,8.1,0,0,1-1.05-4.13,8.69,8.69,0,0,1,1.11-4.51,7.67,7.67,0,0,1,2.94-2.88,8.16,8.16,0,0,1,4-1,6.85,6.85,0,0,1,3.6,1,7.15,7.15,0,0,1,2.58,2.68,8,8,0,0,1,1,4l0,1.32H123.69a5.06,5.06,0,0,0,1.75,3.38,5.67,5.67,0,0,0,3.77,1.24,5.12,5.12,0,0,0,2.67-.61,12.31,12.31,0,0,0,1.68-1.19Zm-6.45-11.19a5.71,5.71,0,0,0-3.09.83,4.13,4.13,0,0,0-1.74,2.83h8.82v-.21a3.45,3.45,0,0,0-.68-1.8A4,4,0,0,0,130.5,406,4.11,4.11,0,0,0,128.64,405.6Z"/><path d="M148,406.44a3.55,3.55,0,0,0-.74-.25,3.84,3.84,0,0,0-.91-.11,4,4,0,0,0-1.89.5,4.27,4.27,0,0,0-1.55,1.41,3.79,3.79,0,0,0-.61,2.17v8.7h-3.12V403.11h3.12v3a5.77,5.77,0,0,1,2-2.37,4.85,4.85,0,0,1,2.81-.93,3.91,3.91,0,0,1,1.71.3Z"/><path d="M160.32,407.25a7.45,7.45,0,0,0-1.91-1.38,4.37,4.37,0,0,0-2-.54,5.28,5.28,0,0,0-1.25.15,2.21,2.21,0,0,0-1,.56,1.56,1.56,0,0,0-.42,1.18,1.62,1.62,0,0,0,1,1.53,13.13,13.13,0,0,0,2.36.81,18.39,18.39,0,0,1,2.4.83,4.88,4.88,0,0,1,1.93,1.44,4.1,4.1,0,0,1,.77,2.65,4,4,0,0,1-.83,2.52,5.29,5.29,0,0,1-2.13,1.61,6.91,6.91,0,0,1-2.74.55,9.69,9.69,0,0,1-3.38-.61,6.34,6.34,0,0,1-2.83-2.12l2.1-1.8a6.09,6.09,0,0,0,1.84,1.46,5.58,5.58,0,0,0,2.54.52,3.5,3.5,0,0,0,1.14-.19,2.33,2.33,0,0,0,1-.63,1.69,1.69,0,0,0,.41-1.19,1.45,1.45,0,0,0-.44-1.12,3.25,3.25,0,0,0-1.15-.66,16,16,0,0,0-1.59-.47,21.19,21.19,0,0,1-2.54-.88,5.42,5.42,0,0,1-2.07-1.5,4,4,0,0,1-.82-2.66,3.76,3.76,0,0,1,.79-2.41,5.26,5.26,0,0,1,2.09-1.56,6.91,6.91,0,0,1,2.76-.56,9,9,0,0,1,3.06.6,6.19,6.19,0,0,1,2.73,1.92Z"/><path d="M169.47,400.41a4,4,0,0,1-.62,2.13,6,6,0,0,1-1.6,1.71,7,7,0,0,1-2.07,1.05L164,403.92a7.39,7.39,0,0,0,1.92-1.23,1.85,1.85,0,0,0,.75-1.2,1,1,0,0,0-.32-.72,8.71,8.71,0,0,0-.7-.6,5,5,0,0,1-.71-.66,1.31,1.31,0,0,1-.31-.9,1.41,1.41,0,0,1,.52-1.17,2,2,0,0,1,1.31-.42,2.93,2.93,0,0,1,2,.87A3.28,3.28,0,0,1,169.47,400.41Z"/><path d="M181.92,407.25a7.45,7.45,0,0,0-1.91-1.38,4.37,4.37,0,0,0-2-.54,5.28,5.28,0,0,0-1.25.15,2.21,2.21,0,0,0-1,.56,1.56,1.56,0,0,0-.42,1.18,1.62,1.62,0,0,0,1,1.53,13.13,13.13,0,0,0,2.36.81,18.39,18.39,0,0,1,2.4.83,4.88,4.88,0,0,1,1.93,1.44,4.1,4.1,0,0,1,.77,2.65A4,4,0,0,1,183,417a5.29,5.29,0,0,1-2.13,1.61,6.91,6.91,0,0,1-2.74.55,9.69,9.69,0,0,1-3.38-.61,6.34,6.34,0,0,1-2.83-2.12l2.1-1.8a6.09,6.09,0,0,0,1.84,1.46,5.58,5.58,0,0,0,2.54.52,3.5,3.5,0,0,0,1.14-.19,2.33,2.33,0,0,0,1-.63,1.69,1.69,0,0,0,.41-1.19,1.45,1.45,0,0,0-.44-1.12,3.25,3.25,0,0,0-1.15-.66,16,16,0,0,0-1.59-.47,21.19,21.19,0,0,1-2.54-.88,5.42,5.42,0,0,1-2.07-1.5,4,4,0,0,1-.82-2.66,3.76,3.76,0,0,1,.79-2.41,5.26,5.26,0,0,1,2.09-1.56,6.91,6.91,0,0,1,2.76-.56,9,9,0,0,1,3.06.6,6.19,6.19,0,0,1,2.73,1.92Z"/><path d="M203.82,402.84a7,7,0,0,1,3.76,1,7.27,7.27,0,0,1,2.63,2.86,9.78,9.78,0,0,1,0,8.45,7.38,7.38,0,0,1-2.61,2.89,6.73,6.73,0,0,1-3.69,1.05,6.45,6.45,0,0,1-3-.72,7,7,0,0,1-2.14-1.65v8.7H195.6V403.08h3.12v2.31a6.15,6.15,0,0,1,2.07-1.77A6.05,6.05,0,0,1,203.82,402.84Zm-.42,2.85a4.62,4.62,0,0,0-2.51.69,4.78,4.78,0,0,0-1.71,1.88,6.3,6.3,0,0,0,0,5.41,4.86,4.86,0,0,0,1.71,1.91,4.54,4.54,0,0,0,2.51.7,4.45,4.45,0,0,0,2.49-.7,4.89,4.89,0,0,0,1.69-1.91,6.21,6.21,0,0,0,0-5.41,4.81,4.81,0,0,0-1.69-1.88A4.52,4.52,0,0,0,203.4,405.69Z"/><path d="M222.78,402.78a5.44,5.44,0,0,1,3.3.87,4.53,4.53,0,0,1,1.63,2.34,10.81,10.81,0,0,1,.47,3.27v9.6h-3.09v-9.39a6.44,6.44,0,0,0-.3-2,2.73,2.73,0,0,0-1-1.41,3.05,3.05,0,0,0-2-.42,4.36,4.36,0,0,0-2.13.51,4,4,0,0,0-1.47,1.35,3.37,3.37,0,0,0-.54,1.86v9.54h-3.09v-22.2h3.09v8.94a6.54,6.54,0,0,1,2.1-2A5.7,5.7,0,0,1,222.78,402.78Z"/><path d="M247.47,411a8.36,8.36,0,0,1-1.07,4.25,7.76,7.76,0,0,1-2.88,2.89,8,8,0,0,1-4.06,1.05,8.05,8.05,0,0,1-4.08-1.05,7.74,7.74,0,0,1-2.9-2.89,9,9,0,0,1,0-8.49,7.76,7.76,0,0,1,2.9-2.9,8.05,8.05,0,0,1,4.08-1.05,8,8,0,0,1,4.06,1.05,7.78,7.78,0,0,1,2.88,2.9A8.32,8.32,0,0,1,247.47,411Zm-3.15,0a5.64,5.64,0,0,0-.62-2.8,4.77,4.77,0,0,0-1.75-1.89,4.7,4.7,0,0,0-2.49-.68,4.8,4.8,0,0,0-2.51.68,4.75,4.75,0,0,0-1.77,1.89,6.69,6.69,0,0,0,0,5.58,4.84,4.84,0,0,0,1.77,1.9,4.71,4.71,0,0,0,2.51.69,4.62,4.62,0,0,0,2.49-.69,4.87,4.87,0,0,0,1.75-1.9A5.61,5.61,0,0,0,244.32,411Z"/><path d="M259.08,402.78a5.44,5.44,0,0,1,3.3.87A4.53,4.53,0,0,1,264,406a10.81,10.81,0,0,1,.47,3.27v9.6h-3.09v-9.39a6.44,6.44,0,0,0-.3-2,2.73,2.73,0,0,0-1-1.41,3.05,3.05,0,0,0-2-.42,4.36,4.36,0,0,0-2.13.51,4,4,0,0,0-1.47,1.35,3.37,3.37,0,0,0-.54,1.86v9.54h-3.09V403.11h3.09v2.49a6.54,6.54,0,0,1,2.1-2A5.7,5.7,0,0,1,259.08,402.78Z"/><path d="M282.21,416.79h0a8.67,8.67,0,0,1-2.64,1.65,9.31,9.31,0,0,1-7.85-.31,7.48,7.48,0,0,1-2.92-2.85,8.1,8.1,0,0,1-1-4.13,8.69,8.69,0,0,1,1.11-4.51,7.67,7.67,0,0,1,2.94-2.88,8.16,8.16,0,0,1,4-1,6.85,6.85,0,0,1,3.6,1,7.15,7.15,0,0,1,2.58,2.68,8,8,0,0,1,1,4l0,1.32H270.81a5.06,5.06,0,0,0,1.75,3.38,5.67,5.67,0,0,0,3.77,1.24,5.12,5.12,0,0,0,2.67-.61,12.31,12.31,0,0,0,1.68-1.19Zm-6.45-11.19a5.71,5.71,0,0,0-3.09.83,4.13,4.13,0,0,0-1.74,2.83h8.82v-.21a3.45,3.45,0,0,0-.68-1.8,4,4,0,0,0-1.45-1.21A4.11,4.11,0,0,0,275.76,405.6Z"/><path class="cls-1" d="M1277.51,173.21l-8-20-14.17-35.43a79.26,79.26,0,0,0-73.93-50h-90.29a79.25,79.25,0,0,0-73.93,50.05L1003,153.23l-8,20a45.39,45.39,0,0,0-29.39,42.42v34.12A45.13,45.13,0,0,0,977,279.56V318a22.75,22.75,0,0,0,22.75,22.75h22.75A22.74,22.74,0,0,0,1045.27,318V295.25h182V318A22.75,22.75,0,0,0,1250,340.75h22.75A22.74,22.74,0,0,0,1295.52,318V279.56a45.06,45.06,0,0,0,11.38-29.81V215.63A45.39,45.39,0,0,0,1277.51,173.21ZM1059.44,134.7a34.13,34.13,0,0,1,31.69-21.45h90.29a34.13,34.13,0,0,1,31.68,21.45l14.17,35.43h-182Zm-36.92,114.91c-13.65,0-22.75-9.07-22.75-22.68s9.1-22.68,22.75-22.68,34.13,20.42,34.13,34-20.48,11.34-34.13,11.34Zm227.5,0c-13.65,0-34.12,2.27-34.12-11.34s20.47-34,34.12-34,22.75,9.08,22.75,22.68S1263.67,249.61,1250,249.61Z"/><path d="M978.72,411a5.44,5.44,0,0,0,.7,2.78,5.35,5.35,0,0,0,1.86,1.92,4.66,4.66,0,0,0,2.48.7,4.41,4.41,0,0,0,2.6-.78,9,9,0,0,0,1.8-1.62l1.71,2.1a6.29,6.29,0,0,1-1.56,1.52,8.81,8.81,0,0,1-2.25,1.14,8,8,0,0,1-2.63.43,7.28,7.28,0,0,1-3.91-1.08,7.68,7.68,0,0,1-2.74-2.94,9.13,9.13,0,0,1,0-8.35,7.73,7.73,0,0,1,2.74-2.93,7.28,7.28,0,0,1,3.91-1.08,8.32,8.32,0,0,1,3.89.89,6.09,6.09,0,0,1,2.55,2.29l-1.71,2.1a5.8,5.8,0,0,0-2-1.75,5,5,0,0,0-2.47-.74,4.73,4.73,0,0,0-2.55.71,5,5,0,0,0-1.81,1.92A5.81,5.81,0,0,0,978.72,411Z"/><path d="M1007.45,403.11v15.75h-3.12v-2.43a7.24,7.24,0,0,1-2.13,1.86,6.09,6.09,0,0,1-3.26.87,6.55,6.55,0,0,1-3.62-1.05,7.33,7.33,0,0,1-2.59-2.91,9,9,0,0,1-1-4.26,8.93,8.93,0,0,1,1-4.24,7.28,7.28,0,0,1,2.73-2.88,7.6,7.6,0,0,1,4-1,5.7,5.7,0,0,1,2.9.72,6.8,6.8,0,0,1,2,1.68v-2.07Zm-7.8,13.2a4.5,4.5,0,0,0,2.52-.7,4.68,4.68,0,0,0,1.68-1.92,6.14,6.14,0,0,0,.6-2.75,6,6,0,0,0-.6-2.7,4.69,4.69,0,0,0-1.68-1.9,4.78,4.78,0,0,0-5,0,4.65,4.65,0,0,0-1.67,1.89,5.9,5.9,0,0,0-.61,2.73,6,6,0,0,0,.61,2.75,4.73,4.73,0,0,0,1.67,1.92A4.4,4.4,0,0,0,999.65,416.31Z"/><path d="M1020.59,406.44a3.44,3.44,0,0,0-.73-.25,3.93,3.93,0,0,0-.92-.11,4,4,0,0,0-1.89.5,4.24,4.24,0,0,0-1.54,1.41,3.79,3.79,0,0,0-.62,2.17v8.7h-3.12V403.11h3.12v3a5.8,5.8,0,0,1,2-2.37,4.82,4.82,0,0,1,2.8-.93,3.91,3.91,0,0,1,1.71.3Z"/><path d="M1047,396.66v22.2h-3.09v-2.22a6.78,6.78,0,0,1-2,1.73,5.91,5.91,0,0,1-3.06.79,7.19,7.19,0,0,1-3.84-1.05,7.44,7.44,0,0,1-2.7-2.91,9.55,9.55,0,0,1,0-8.47,7.56,7.56,0,0,1,2.67-2.9,7,7,0,0,1,3.78-1.05,6.88,6.88,0,0,1,5.19,2.31v-8.43Zm-7.77,19.83a4.44,4.44,0,0,0,2.52-.72,4.8,4.8,0,0,0,1.68-2,7,7,0,0,0,0-5.65,4.84,4.84,0,0,0-1.68-2,4.44,4.44,0,0,0-2.52-.72,4.38,4.38,0,0,0-2.49.72,4.93,4.93,0,0,0-1.69,2,6.75,6.75,0,0,0,0,5.65,4.9,4.9,0,0,0,1.69,2A4.38,4.38,0,0,0,1039.25,416.49Z"/><path d="M1066,403.11v15.75h-3.12v-2.43a7.37,7.37,0,0,1-2.13,1.86,6.1,6.1,0,0,1-3.27.87,6.54,6.54,0,0,1-3.61-1.05,7.43,7.43,0,0,1-2.6-2.91,9.16,9.16,0,0,1-1-4.26,8.82,8.82,0,0,1,1-4.24,7.28,7.28,0,0,1,2.73-2.88,7.6,7.6,0,0,1,4-1,5.7,5.7,0,0,1,2.9.72,6.8,6.8,0,0,1,2,1.68v-2.07Zm-7.8,13.2a4.5,4.5,0,0,0,2.52-.7,4.75,4.75,0,0,0,1.68-1.92,6.14,6.14,0,0,0,.6-2.75,6,6,0,0,0-.6-2.7,4.76,4.76,0,0,0-1.68-1.9,4.78,4.78,0,0,0-5,0,4.67,4.67,0,0,0-1.68,1.89,6,6,0,0,0-.6,2.73,6.14,6.14,0,0,0,.6,2.75,4.75,4.75,0,0,0,1.68,1.92A4.4,4.4,0,0,0,1058.15,416.31Z"/><path d="M1079.36,407.25a7.4,7.4,0,0,0-1.9-1.38,4.41,4.41,0,0,0-2-.54,5.19,5.19,0,0,0-1.24.15,2.24,2.24,0,0,0-1,.56,1.56,1.56,0,0,0-.42,1.18,1.63,1.63,0,0,0,1,1.53,13,13,0,0,0,2.35.81,18.39,18.39,0,0,1,2.4.83,4.92,4.92,0,0,1,1.94,1.44,4.1,4.1,0,0,1,.76,2.65,4,4,0,0,1-.82,2.52,5.29,5.29,0,0,1-2.13,1.61,7,7,0,0,1-2.75.55,9.64,9.64,0,0,1-3.37-.61,6.37,6.37,0,0,1-2.84-2.12l2.1-1.8a6.13,6.13,0,0,0,1.85,1.46,5.54,5.54,0,0,0,2.53.52,3.5,3.5,0,0,0,1.14-.19,2.37,2.37,0,0,0,1-.63,1.68,1.68,0,0,0,.4-1.19,1.45,1.45,0,0,0-.43-1.12,3.3,3.3,0,0,0-1.16-.66,16,16,0,0,0-1.59-.47,21,21,0,0,1-2.53-.88,5.42,5.42,0,0,1-2.07-1.5,4,4,0,0,1-.83-2.66,3.76,3.76,0,0,1,.8-2.41,5.22,5.22,0,0,1,2.08-1.56,6.91,6.91,0,0,1,2.76-.56,9,9,0,0,1,3.06.6,6.19,6.19,0,0,1,2.73,1.92Z"/><path d="M1092.89,402.78a5.44,5.44,0,0,1,3.3.87,4.54,4.54,0,0,1,1.64,2.34,10.81,10.81,0,0,1,.46,3.27v9.6h-3.09v-9.39a6.44,6.44,0,0,0-.3-2,2.73,2.73,0,0,0-1-1.41,3.05,3.05,0,0,0-2-.42,4.36,4.36,0,0,0-2.13.51,4,4,0,0,0-1.47,1.35,3.37,3.37,0,0,0-.54,1.86v9.54h-3.09v-22.2h3.09v8.94a6.54,6.54,0,0,1,2.1-2A5.7,5.7,0,0,1,1092.89,402.78Z"/><path d="M1110.68,402.78a7,7,0,0,1,3.77,1,7.24,7.24,0,0,1,2.62,2.88,9,9,0,0,1,1,4.24,9.16,9.16,0,0,1-1,4.26,7.37,7.37,0,0,1-2.61,2.91,6.73,6.73,0,0,1-3.69,1.05,6.3,6.3,0,0,1-3-.73,7.26,7.26,0,0,1-2.15-1.67v2h-3.09V396.66h3.09v8.73a6.43,6.43,0,0,1,2.07-1.8A5.88,5.88,0,0,1,1110.68,402.78Zm-.42,2.82a4.58,4.58,0,0,0-2.5.69,4.73,4.73,0,0,0-1.71,1.91,6.39,6.39,0,0,0,0,5.49,4.92,4.92,0,0,0,1.71,1.93,4.44,4.44,0,0,0,2.5.72,4.38,4.38,0,0,0,2.49-.72,5,5,0,0,0,1.7-1.93,6.48,6.48,0,0,0,0-5.49,4.78,4.78,0,0,0-1.7-1.91A4.52,4.52,0,0,0,1110.26,405.6Z"/><path d="M1136.48,411a8.35,8.35,0,0,1-1.06,4.25,7.76,7.76,0,0,1-2.88,2.89,8.43,8.43,0,0,1-8.15,0,7.71,7.71,0,0,1-2.89-2.89,9,9,0,0,1,0-8.49,7.74,7.74,0,0,1,2.89-2.9,8.43,8.43,0,0,1,8.15,0,7.78,7.78,0,0,1,2.88,2.9A8.32,8.32,0,0,1,1136.48,411Zm-3.15,0a5.64,5.64,0,0,0-.61-2.8,4.8,4.8,0,0,0-1.76-1.89,4.7,4.7,0,0,0-2.49-.68,4.75,4.75,0,0,0-4.27,2.57,6.59,6.59,0,0,0,0,5.58,4.84,4.84,0,0,0,1.77,1.9,4.68,4.68,0,0,0,2.5.69,4.62,4.62,0,0,0,2.49-.69,4.89,4.89,0,0,0,1.76-1.9A5.61,5.61,0,0,0,1133.33,411Z"/><path d="M1154.51,403.11v15.75h-3.12v-2.43a7.37,7.37,0,0,1-2.13,1.86,6.1,6.1,0,0,1-3.27.87,6.54,6.54,0,0,1-3.61-1.05,7.43,7.43,0,0,1-2.6-2.91,9.16,9.16,0,0,1-1-4.26,8.82,8.82,0,0,1,1-4.24,7.28,7.28,0,0,1,2.73-2.88,7.6,7.6,0,0,1,4-1,5.7,5.7,0,0,1,2.9.72,6.8,6.8,0,0,1,2,1.68v-2.07Zm-7.8,13.2a4.5,4.5,0,0,0,2.52-.7,4.75,4.75,0,0,0,1.68-1.92,6.14,6.14,0,0,0,.6-2.75,6,6,0,0,0-.6-2.7,4.76,4.76,0,0,0-1.68-1.9,4.78,4.78,0,0,0-5,0,4.67,4.67,0,0,0-1.68,1.89,6,6,0,0,0-.6,2.73,6.14,6.14,0,0,0,.6,2.75,4.75,4.75,0,0,0,1.68,1.92A4.4,4.4,0,0,0,1146.71,416.31Z"/><path d="M1167.65,406.44a3.44,3.44,0,0,0-.73-.25,3.93,3.93,0,0,0-.92-.11,4,4,0,0,0-1.89.5,4.24,4.24,0,0,0-1.54,1.41,3.79,3.79,0,0,0-.62,2.17v8.7h-3.12V403.11H1162v3a5.8,5.8,0,0,1,2-2.37,4.82,4.82,0,0,1,2.8-.93,3.91,3.91,0,0,1,1.71.3Z"/><path d="M1185,396.66v22.2h-3.09v-2.22a6.78,6.78,0,0,1-2,1.73,5.91,5.91,0,0,1-3.06.79,7.19,7.19,0,0,1-3.84-1.05,7.44,7.44,0,0,1-2.7-2.91,9.55,9.55,0,0,1,0-8.47,7.56,7.56,0,0,1,2.67-2.9,7,7,0,0,1,3.78-1.05,6.88,6.88,0,0,1,5.19,2.31v-8.43Zm-7.77,19.83a4.44,4.44,0,0,0,2.52-.72,4.8,4.8,0,0,0,1.68-2,7,7,0,0,0,0-5.65,4.84,4.84,0,0,0-1.68-2,4.44,4.44,0,0,0-2.52-.72,4.38,4.38,0,0,0-2.49.72,4.93,4.93,0,0,0-1.69,2,6.75,6.75,0,0,0,0,5.65,4.9,4.9,0,0,0,1.69,2A4.38,4.38,0,0,0,1177.25,416.49Z"/><path d="M1206.77,407.25a7.4,7.4,0,0,0-1.9-1.38,4.41,4.41,0,0,0-2-.54,5.19,5.19,0,0,0-1.24.15,2.24,2.24,0,0,0-1,.56,1.56,1.56,0,0,0-.42,1.18,1.63,1.63,0,0,0,1,1.53,13,13,0,0,0,2.35.81,18.39,18.39,0,0,1,2.4.83,4.92,4.92,0,0,1,1.94,1.44,4.1,4.1,0,0,1,.76,2.65,4,4,0,0,1-.82,2.52,5.29,5.29,0,0,1-2.13,1.61,7,7,0,0,1-2.75.55,9.64,9.64,0,0,1-3.37-.61,6.37,6.37,0,0,1-2.84-2.12l2.1-1.8a6.13,6.13,0,0,0,1.85,1.46,5.54,5.54,0,0,0,2.53.52,3.5,3.5,0,0,0,1.14-.19,2.37,2.37,0,0,0,1-.63,1.68,1.68,0,0,0,.4-1.19,1.45,1.45,0,0,0-.43-1.12,3.3,3.3,0,0,0-1.16-.66,16,16,0,0,0-1.59-.47,21,21,0,0,1-2.53-.88,5.42,5.42,0,0,1-2.07-1.5,4,4,0,0,1-.83-2.66,3.76,3.76,0,0,1,.8-2.41,5.22,5.22,0,0,1,2.08-1.56,6.91,6.91,0,0,1,2.76-.56,9,9,0,0,1,3.06.6,6.19,6.19,0,0,1,2.73,1.92Z"/><path d="M1214.69,425.76l2.58-5.91.09-.21L1210,403.11h3.6l4.92,11.58a3.49,3.49,0,0,1,.18.45l.21.6c.08-.22.16-.43.23-.64s.14-.42.22-.62l4.11-11.37h3.66l-6.48,15.75-2.67,6.9Z"/><path d="M1238.27,407.25a7.4,7.4,0,0,0-1.9-1.38,4.41,4.41,0,0,0-2-.54,5.19,5.19,0,0,0-1.24.15,2.24,2.24,0,0,0-1,.56,1.56,1.56,0,0,0-.42,1.18,1.63,1.63,0,0,0,1,1.53,13,13,0,0,0,2.35.81,18.39,18.39,0,0,1,2.4.83,4.92,4.92,0,0,1,1.94,1.44,4.1,4.1,0,0,1,.76,2.65,4,4,0,0,1-.82,2.52,5.29,5.29,0,0,1-2.13,1.61,7,7,0,0,1-2.75.55,9.64,9.64,0,0,1-3.37-.61,6.37,6.37,0,0,1-2.84-2.12l2.1-1.8a6.13,6.13,0,0,0,1.85,1.46,5.54,5.54,0,0,0,2.53.52,3.5,3.5,0,0,0,1.14-.19,2.37,2.37,0,0,0,1-.63,1.68,1.68,0,0,0,.4-1.19,1.45,1.45,0,0,0-.43-1.12,3.3,3.3,0,0,0-1.16-.66,16,16,0,0,0-1.59-.47,21,21,0,0,1-2.53-.88,5.42,5.42,0,0,1-2.07-1.5,4,4,0,0,1-.83-2.66,3.76,3.76,0,0,1,.8-2.41,5.22,5.22,0,0,1,2.08-1.56,6.91,6.91,0,0,1,2.76-.56,9,9,0,0,1,3.06.6,6.19,6.19,0,0,1,2.73,1.92Z"/><path d="M1248.59,418.86h-3.09V406.11h-3.27v-3h3.27v-4h3.09v4h3.66v3h-3.66Z"/><path d="M1268.45,416.79h0a8.67,8.67,0,0,1-2.64,1.65,9.29,9.29,0,0,1-7.84-.31,7.51,7.51,0,0,1-2.93-2.85,8.1,8.1,0,0,1-1-4.13,8.69,8.69,0,0,1,1.11-4.51,7.67,7.67,0,0,1,2.94-2.88,8.16,8.16,0,0,1,4-1,6.85,6.85,0,0,1,3.6,1,7.15,7.15,0,0,1,2.58,2.68,8,8,0,0,1,1,4l0,1.32h-12.06a5.07,5.07,0,0,0,1.76,3.38,5.64,5.64,0,0,0,3.76,1.24,5.12,5.12,0,0,0,2.67-.61,12.31,12.31,0,0,0,1.68-1.19ZM1262,405.6a5.71,5.71,0,0,0-3.09.83,4.13,4.13,0,0,0-1.74,2.83H1266v-.21a3.44,3.44,0,0,0-.67-1.8,4.18,4.18,0,0,0-3.32-1.65Z"/><path d="M1280.51,402.84a5,5,0,0,1,3.12.89,4.85,4.85,0,0,1,1.68,2.41,6.48,6.48,0,0,1,1.23-1.51,7.23,7.23,0,0,1,1.89-1.28,5.34,5.34,0,0,1,2.31-.51,5.07,5.07,0,0,1,3.18.89,4.69,4.69,0,0,1,1.61,2.37,11,11,0,0,1,.46,3.31v9.45h-3.12v-9.27a5.35,5.35,0,0,0-.66-2.82,2.68,2.68,0,0,0-2.49-1.08,3.93,3.93,0,0,0-2.86,1.1,3.56,3.56,0,0,0-1.13,2.65v9.42h-3.12v-9.33a4.88,4.88,0,0,0-.72-2.76,2.64,2.64,0,0,0-2.37-1.08,4.06,4.06,0,0,0-2,.51,3.87,3.87,0,0,0-1.41,1.34,3.42,3.42,0,0,0-.51,1.84v9.48h-3.12V403.11h3.12v2.52a7,7,0,0,1,2-1.93A5.21,5.21,0,0,1,1280.51,402.84Z"/><path class="cls-1" d="M392.14,175.36v9H344.56v-9a4.68,4.68,0,0,0-8-3.31l-16.79,16.79a4.68,4.68,0,0,0,0,6.62l16.79,16.79a4.68,4.68,0,0,0,8-3.31v-9h47.58v9a4.69,4.69,0,0,0,8,3.31l16.79-16.79a4.68,4.68,0,0,0,0-6.62l-16.79-16.79a4.69,4.69,0,0,0-8,3.31Z"/><path class="cls-1" d="M883.12,153.69v9H835.54v-9a4.68,4.68,0,0,0-8-3.31l-16.79,16.79a4.68,4.68,0,0,0,0,6.62l16.79,16.79a4.68,4.68,0,0,0,8-3.31v-9h47.58v9a4.69,4.69,0,0,0,8,3.31l16.79-16.79a4.68,4.68,0,0,0,0-6.62l-16.79-16.79a4.69,4.69,0,0,0-8,3.31Z"/><rect class="cls-2" x="59.47" y="39" width="163" height="236" rx="26.68"/></g></g></svg>